<svg xmlns="http://www.w3.org/2000/svg" viewBox="0 0 383.2 383.27"><defs><style>.cls-1{fill:#fff;}</style></defs><g id="Слой_2" data-name="Слой 2"><g id="Слой_1-2" data-name="Слой 1"><path class="cls-1" d="M179.6,0h24a16.17,16.17,0,0,0,2.5.59c35.9,2.75,68.52,14.62,97.47,35.94C345.17,67.19,371,108,380.29,159c1.25,6.83,1.95,13.76,2.91,20.65V203.6c-.83,6.28-1.44,12.6-2.51,18.84-8,46.13-29.57,84.79-65.34,114.9-46.13,38.83-99.45,53.18-158.81,42.52-44.69-8-81.85-30.16-111.07-64.86C10.77,273.78-4.13,225.94,1,172.29c3.56-37.44,17.55-71,41.26-100.18,30.33-37.36,69.2-60.66,116.69-69.19C165.78,1.69,172.71,1,179.6,0Zm16.58,45.68c-28-.08-50.48,5.39-72,16.44C50.8,99.79,23.57,192.91,65.13,264.07c4.91,8.39,12.86,9.45,19.76,2.55q90.78-90.75,181.54-181.54c7.08-7.07,6-15-2.56-20C241.55,52.3,217.5,45.9,196.18,45.68Zm141.36,141.8c-.18-21.69-6.51-45.75-19.39-68-5-8.71-12.78-9.72-19.9-2.61L116.76,298.33c-7.11,7.11-6.09,14.89,2.68,19.86,31,17.58,64.18,23.38,99.2,16.86C287.68,322.19,337.46,261.89,337.54,187.48Z"/></g></g></svg>