<svg xmlns="http://www.w3.org/2000/svg" viewBox="0 0 408.8 294.08"><defs><style>.cls-1{fill:#fff;}</style></defs><g id="Слой_2" data-name="Слой 2"><g id="Слой_1-2" data-name="Слой 1"><path class="cls-1" d="M408.8,36.84c-2,10.11-8.32,17.42-15.4,24.48Q282.64,171.86,172.07,282.6c-9.95,10-21.54,14.32-35.15,9.53a38,38,0,0,1-13.62-8.62Q66.72,227.47,10.59,171c-15.13-15.2-13.85-37,2.6-49.88,12.84-10,30.92-8.2,43.71,4.56q43.39,43.28,86.65,86.67c1.11,1.12,1.85,2.62,3.42,4.89a49.63,49.63,0,0,1,3.43-4.65Q251,111.89,351.64,11.25c9.73-9.73,21-13.82,34.48-9.59,11.77,3.68,18.79,12,21.87,23.78.23.88.54,1.74.81,2.61Z"/></g></g></svg>