<svg xmlns="http://www.w3.org/2000/svg" viewBox="0 0 384.43 408.82"><defs><style>.cls-1{fill:#fff;}</style></defs><g id="Слой_2" data-name="Слой 2"><g id="Слой_1-2" data-name="Слой 1"><path class="cls-1" d="M383.58,256.8c2.67,14.51-1,27.71-10.55,39.11-2,2.44-4.33,4.68-6.59,6.93q-40.53,40.47-81,81a28.15,28.15,0,0,1-12.89,7.47c-20.86,5.71-41.67,11.62-62.5,17.46h-6.39a8.15,8.15,0,0,0-1.26-.81c-8.78-3.51-12.94-11.16-10.29-20.16q9.18-31.14,18.92-62.11a21.67,21.67,0,0,1,5.35-8.23q42.79-43,85.85-85.73c13.73-13.58,30.28-18,48.77-12.17C369.12,225.26,380.14,238.11,383.58,256.8ZM326.9,279.05c6-4.71,8.9-10.67,6.91-18.19-1.73-6.5-6.33-10.42-12.93-11.48-7-1.12-12.19,2.17-16.26,7.32Z"/><path class="cls-1" d="M333.81,260.86c2,7.52-.92,13.48-6.91,18.19L304.62,256.7c4.07-5.15,9.26-8.44,16.26-7.32C327.48,250.44,332.08,254.36,333.81,260.86Z"/><path class="cls-1" d="M324,65.69c.15,31.4.1,62.8.07,94.19,0,9.53-4.11,15.46-11.93,17.57a15.67,15.67,0,0,1-19.65-13,48.23,48.23,0,0,1-.34-6.36q0-45.9,0-91.8c0-13.85-5.35-24.69-18-30.79a35.91,35.91,0,0,0-15-3.39Q162,31.77,64.83,32C46.52,32,33.46,44.57,32.16,62.81c-.11,1.46-.14,2.92-.14,4.38Q32,204.5,32,341.8C32,356,37,367.13,50,373.35a39.53,39.53,0,0,0,15.76,3.38c17,.41,34.06.11,51.09.18,6.7,0,11.84,3,14.73,9.1,2.73,5.76,2.36,11.63-1.82,16.45-2.31,2.67-5.85,4.28-8.84,6.36H57.08c-1.8-.4-3.58-.84-5.38-1.21C21.18,401.37.23,376.06.16,344q-.33-139.5,0-279C.21,32.92,21,7.5,51.57,1.33A69.14,69.14,0,0,1,65,.07Q162,0,259,0c31.21,0,56.09,19.55,63.38,49.84A69.19,69.19,0,0,1,324,65.69Z"/><path class="cls-1" d="M242.54,159.72c10.63,0,17.82,6.73,17.6,16.34-.21,8.84-7,15.46-16.37,15.55-11.57.12-23.15,0-34.72,0H162c-27,0-54,0-81,0-10.87,0-18.06-7.87-16.82-18.11a15.72,15.72,0,0,1,14-13.67,30.69,30.69,0,0,1,3.59-.13Q162.13,159.71,242.54,159.72Z"/><path class="cls-1" d="M243.49,95.86c12,0,19.74,10.85,15.63,21.52-2.43,6.31-7.22,9.69-13.91,10.31-2,.18-4,.08-6,.08q-78.82,0-157.64,0c-10.79,0-18.1-7-17.62-16.69.44-8.89,7.21-15.18,16.69-15.21,21.29-.08,42.57,0,63.85,0h17.56C189.21,95.83,216.35,95.77,243.49,95.86Z"/><path class="cls-1" d="M195.21,236.05c1.56,7.65-2.09,15.15-9.15,18a23.1,23.1,0,0,1-8.13,1.44c-16.08.12-32.16.06-48.25.06-16.34,0-32.69,0-49,0-8.67,0-15.29-5.47-16.46-13.24-1.54-10.24,5.56-18.58,16.19-18.64,19.67-.12,39.34,0,59,0,13.42,0,26.85-.09,40.27,0A15.8,15.8,0,0,1,195.21,236.05Z"/></g></g></svg>