<svg xmlns="http://www.w3.org/2000/svg" viewBox="0 0 344.16 344.16"><defs><style>.cls-1{fill:#fff;}</style></defs><g id="Слой_2" data-name="Слой 2"><g id="Слой_1-2" data-name="Слой 1"><path class="cls-1" d="M341.64,65.19,286.38,3.31A9.94,9.94,0,0,0,279,0H9.93A9.92,9.92,0,0,0,0,9.93v324.3a9.93,9.93,0,0,0,9.93,9.93h324.3a9.94,9.94,0,0,0,9.93-9.93V71.81A9.92,9.92,0,0,0,341.64,65.19ZM238.26,19.86V125.75H66.18V19.86ZM66.18,324.3V205.17H271.36V324.3Zm258.12,0H291.21V195.24a9.92,9.92,0,0,0-9.93-9.92h-225a9.92,9.92,0,0,0-9.93,9.92V324.3H19.86V19.86H46.33V135.68a9.93,9.93,0,0,0,9.93,9.93H248.19a9.94,9.94,0,0,0,9.93-9.93V19.86h16.41L324.3,75.58Z"/><rect class="cls-1" x="158.84" y="26.47" width="59.57" height="92.66" rx="9.93"/><path class="cls-1" d="M238.26,231.65h-139a9.93,9.93,0,1,0,0,19.85h139a9.93,9.93,0,1,0,0-19.85Z"/><path class="cls-1" d="M238.26,278h-139a9.93,9.93,0,0,0,0,19.86h139a9.93,9.93,0,1,0,0-19.86Z"/></g></g></svg>