<svg xmlns="http://www.w3.org/2000/svg" viewBox="0 0 144 144"><defs><style>.cls-1{fill:#fff;}.cls-2{fill:#455fac;}.cls-3{fill:#2e3f73;}</style></defs><g id="Слой_2" data-name="Слой 2"><g id="Слой_1-2" data-name="Слой 1"><path class="cls-1" d="M27.79,144H0V0H144V144H75.23c7.32-2.05,14.63-4.13,22-6.14a9.85,9.85,0,0,0,4.53-2.63Q116,121,130.22,106.78c.79-.8,1.6-1.58,2.32-2.44a16.14,16.14,0,0,0,3.71-13.75C135,84,131.16,79.5,124.78,77.48s-12.32-.5-17.15,4.28q-15.16,15-30.18,30.14a7.61,7.61,0,0,0-1.88,2.89q-3.43,10.89-6.65,21.84c-.93,3.16.53,5.85,3.61,7.08A2.66,2.66,0,0,1,73,144H50.24a15.93,15.93,0,0,0,3.11-2.24A5.06,5.06,0,0,0,54,136a5.37,5.37,0,0,0-5.18-3.2c-6,0-12,.08-18-.06a14.16,14.16,0,0,1-5.54-1.19c-4.57-2.19-6.35-6.12-6.35-11.09Q19,72.17,19,23.9c0-.52,0-1,.05-1.54.46-6.42,5-10.83,11.49-10.84q34.16,0,68.33,0a12.71,12.71,0,0,1,5.26,1.19c4.45,2.15,6.34,6,6.33,10.82q0,16.14,0,32.28a16.58,16.58,0,0,0,.12,2.23,5.51,5.51,0,0,0,6.91,4.58c2.75-.74,4.19-2.83,4.19-6.18,0-11,0-22.07,0-33.11a24.64,24.64,0,0,0-.57-5.56A22.3,22.3,0,0,0,98.78.29Q64.69.25,30.59.3a24.31,24.31,0,0,0-4.74.44C15.12,2.91,7.8,11.85,7.77,23.12q-.09,49.05,0,98.09A22.3,22.3,0,0,0,25.9,143.57C26.53,143.7,27.16,143.86,27.79,144ZM64.7,34H58.53c-7.48,0-15,0-22.45,0a5.57,5.57,0,0,0-5.87,5.35c-.17,3.41,2.4,5.87,6.2,5.87q27.71,0,55.42,0c.7,0,1.4,0,2.1,0a5.4,5.4,0,0,0,4.89-3.62c1.45-3.75-1.29-7.55-5.5-7.56C83.78,33.94,74.24,34,64.7,34Zm0,33.69H81.22c4.06,0,8.13,0,12.2,0a5.58,5.58,0,0,0,5.76-5.47c.07-3.38-2.45-5.75-6.19-5.75H36.45a10.53,10.53,0,0,0-1.26,0,5.51,5.51,0,0,0-4.92,4.8c-.44,3.6,2.09,6.36,5.91,6.37Q50.42,67.67,64.66,67.65ZM53.31,90.1c5.66,0,11.31,0,17,0a8.2,8.2,0,0,0,2.86-.5,5.48,5.48,0,0,0,3.21-6.32,5.56,5.56,0,0,0-5.47-4.37c-4.72,0-9.44,0-14.16,0-6.91,0-13.83,0-20.74,0a5.61,5.61,0,1,0,.09,11.21C41.82,90.12,47.57,90.1,53.31,90.1Z"/><path class="cls-2" d="M27.79,144c-.63-.14-1.26-.3-1.89-.43A22.3,22.3,0,0,1,7.78,121.21q-.12-49,0-98.09C7.8,11.85,15.12,2.91,25.85.74A24.31,24.31,0,0,1,30.59.3q34.1,0,68.19,0a22.3,22.3,0,0,1,22.29,17.52,24.64,24.64,0,0,1,.57,5.56c0,11,0,22.07,0,33.11,0,3.35-1.44,5.44-4.19,6.18a5.51,5.51,0,0,1-6.91-4.58,16.58,16.58,0,0,1-.12-2.23q0-16.14,0-32.28c0-4.86-1.88-8.67-6.33-10.82a12.71,12.71,0,0,0-5.26-1.19q-34.17-.12-68.33,0c-6.44,0-11,4.42-11.49,10.84,0,.51-.05,1-.05,1.54q0,48.27,0,96.54c0,5,1.78,8.9,6.35,11.09a14.16,14.16,0,0,0,5.54,1.19c6,.14,12,0,18,.06A5.37,5.37,0,0,1,54,136a5.06,5.06,0,0,1-.64,5.78A15.93,15.93,0,0,1,50.24,144Z"/><path class="cls-2" d="M73,144a2.66,2.66,0,0,0-.45-.29c-3.08-1.23-4.54-3.92-3.61-7.08q3.22-10.95,6.65-21.84a7.61,7.61,0,0,1,1.88-2.89q15-15.12,30.18-30.14c4.83-4.78,10.65-6.34,17.15-4.28S135,84,136.25,90.59a16.14,16.14,0,0,1-3.71,13.75c-.72.86-1.53,1.64-2.32,2.44Q116,121,101.73,135.23a9.85,9.85,0,0,1-4.53,2.63c-7.34,2-14.65,4.09-22,6.14Zm9.58-13.75c3.63-1,6.92-1.87,10.19-2.85a5.18,5.18,0,0,0,2.11-1.23q9.42-9.33,18.78-18.72c.32-.32.61-.67.84-.92l-7.84-7.86c-.15.13-.37.29-.57.48q-9.78,9.76-19.57,19.53a2.07,2.07,0,0,0-.6.76C84.8,122.94,83.73,126.46,82.56,130.25Zm40.09-31.88c2.1-1.65,3.13-3.75,2.43-6.39a5.27,5.27,0,0,0-4.55-4c-2.46-.4-4.28.76-5.71,2.57Z"/><path class="cls-3" d="M64.7,34c9.54,0,19.08,0,28.62,0,4.21,0,7,3.81,5.5,7.56a5.4,5.4,0,0,1-4.89,3.62c-.7.07-1.4,0-2.1,0q-27.72,0-55.42,0c-3.8,0-6.37-2.46-6.2-5.87A5.57,5.57,0,0,1,36.08,34c7.48,0,15,0,22.45,0Z"/><path class="cls-3" d="M64.66,67.65q-14.23,0-28.48,0c-3.82,0-6.35-2.77-5.91-6.37a5.51,5.51,0,0,1,4.92-4.8,10.53,10.53,0,0,1,1.26,0H93c3.74,0,6.26,2.37,6.19,5.75a5.58,5.58,0,0,1-5.76,5.47c-4.07,0-8.14,0-12.2,0Z"/><path class="cls-3" d="M53.31,90.1c-5.74,0-11.49,0-17.24,0A5.61,5.61,0,1,1,36,78.89c6.91,0,13.83,0,20.74,0,4.72,0,9.44,0,14.16,0a5.56,5.56,0,0,1,5.47,4.37,5.48,5.48,0,0,1-3.21,6.32,8.2,8.2,0,0,1-2.86.5C64.62,90.13,59,90.1,53.31,90.1Z"/><path class="cls-1" d="M82.56,130.25c1.17-3.79,2.24-7.31,3.34-10.81a2.07,2.07,0,0,1,.6-.76q9.78-9.78,19.57-19.53c.2-.19.42-.35.57-.48l7.84,7.86c-.23.25-.52.6-.84.92q-9.37,9.38-18.78,18.72a5.18,5.18,0,0,1-2.11,1.23C89.48,128.38,86.19,129.25,82.56,130.25Z"/><path class="cls-1" d="M122.65,98.37l-7.83-7.85c1.43-1.81,3.25-3,5.71-2.57a5.27,5.27,0,0,1,4.55,4C125.78,94.62,124.75,96.72,122.65,98.37Z"/></g></g></svg>