<svg xmlns="http://www.w3.org/2000/svg" viewBox="0 0 311.49 383.29"><defs><style>.cls-1{fill:#fff;}</style></defs><g id="Слой_2" data-name="Слой 2"><g id="Слой_1-2" data-name="Слой 1"><path class="cls-1" d="M185,0c1.51.47,3,1,4.54,1.4a35.9,35.9,0,0,1,26.12,34c.08,4,0,8,0,12.48h4.14q30.12,0,60.24,0c18.69,0,31.41,12.8,31.45,31.54q0,19.27,0,38.54c0,9.14-4.65,13.73-13.86,13.75H293c-.57,11.58-1.14,22.76-1.68,33.94q-2.9,60.54-5.78,121.08c-1,21.3-1.82,42.61-3.22,63.89-1.19,18.07-16.35,32.11-34.47,32.54-8.36.19-16.72.06-25.07.06q-78.21,0-156.41,0c-18.89,0-33.91-11.84-36.77-29.62-1.24-7.72-1.2-15.66-1.57-23.5Q25.2,271.26,22.49,212.4,20.63,173,18.72,133.55a17.12,17.12,0,0,0-.31-1.81c-2.16,0-4.24,0-6.32,0-6.77-.22-11.91-5.14-12-11.87C0,105.39-.13,90.92.19,76.46.54,60.78,13.74,48.09,29.66,48c20.58-.17,41.16-.05,61.74-.05h4.5c0-3.71,0-7.16,0-10.61C96,18.52,107,4.82,125.31.64A5.47,5.47,0,0,0,126.59,0ZM43,131.94c0,3.47-.13,6.58,0,9.69q2.82,60,5.72,119.94c1.33,28,2.59,56.06,4,84.08.48,9.63,4.9,13.65,14.47,13.65h177c9.81,0,14.14-4,14.63-13.88,1.64-33.63,3.17-67.26,4.77-100.89q2.06-43.54,4.19-87.07c.4-8.43.75-16.87,1.14-25.52Zm244.51-24.29V81.11c0-7.7-1.53-9.25-9.09-9.25H33c-.75,0-1.49,0-2.24,0-4.43.14-6.69,2.29-6.72,6.71-.08,8.86,0,17.71,0,26.56a22.15,22.15,0,0,0,.28,2.51ZM191.68,47.77c0-4.49.18-8.6,0-12.69A11.69,11.69,0,0,0,180.09,24q-24.3-.2-48.62,0a11.48,11.48,0,0,0-11.38,10c-.47,4.51-.1,9.11-.1,13.79Z"/><path class="cls-1" d="M107.88,245.67c0,25.69,0,51.39,0,77.08,0,8.94-8.09,14.8-16,11.84A11.88,11.88,0,0,1,84,323.39c-.09-5.49,0-11,0-16.47q0-69,0-138.08c0-9.48,8-15.49,16.21-12.34,5,1.89,7.72,6.27,7.72,12.45Q107.9,207.31,107.88,245.67Z"/><path class="cls-1" d="M167.76,245.37q0,38.53,0,77.08c0,9.2-8.05,15.18-16.1,12.12a12,12,0,0,1-7.81-11.63c-.06-9.73,0-19.46,0-29.19q0-62.49,0-125c0-9.44,8.05-15.43,16.28-12.24,4.84,1.87,7.65,6.24,7.65,12.13q0,34.8,0,69.61Z"/><path class="cls-1" d="M227.64,245.9q0,38.36,0,76.71c0,5.41-2.3,9.44-7.2,11.67-4.66,2.12-9,1.2-12.85-2.16-3-2.66-3.95-6.14-3.94-10.09.06-20.83,0-41.66,0-62.5q0-45.46,0-90.93c0-9.36,8.25-15.33,16.43-12,4.78,1.92,7.49,6.29,7.5,12.25Q227.66,207.36,227.64,245.9Z"/></g></g></svg>